<svg width="25" height="25" viewBox="0 0 25 25" fill="none" xmlns="http://www.w3.org/2000/svg">
<g clip-path="url(#clip0_843_23)">
<path d="M21.428 4.67671C20.9173 4.16571 20.3108 3.76035 19.6434 3.48379C18.9759 3.20723 18.2605 3.06488 17.538 3.06488C16.8155 3.06488 16.1001 3.20723 15.4327 3.48379C14.7652 3.76035 14.1588 4.16571 13.648 4.67671L12.588 5.73671L11.528 4.67671C10.4963 3.64501 9.09704 3.06542 7.63801 3.06542C6.17898 3.06542 4.7797 3.64501 3.74801 4.67671C2.71632 5.7084 2.13672 7.10767 2.13672 8.56671C2.13672 10.0257 2.71632 11.425 3.74801 12.4567L4.80801 13.5167L12.588 21.2967L20.368 13.5167L21.428 12.4567C21.939 11.946 22.3444 11.3395 22.6209 10.6721C22.8975 10.0046 23.0398 9.28919 23.0398 8.56671C23.0398 7.84422 22.8975 7.12881 22.6209 6.46135C22.3444 5.79389 21.939 5.18746 21.428 4.67671Z" fill="#F11515" stroke="#F11515" stroke-width="2" stroke-linecap="round" stroke-linejoin="round"/>
</g>
<defs>
<clipPath id="clip0_843_23">
<rect width="24" height="24" fill="white" transform="translate(0.587891 0.0667114)"/>
</clipPath>
</defs>
</svg>
